<?xml version="1.0" encoding="utf-8"?>
<!-- Generator: Adobe Illustrator 23.0.1, SVG Export Plug-In . SVG Version: 6.00 Build 0)  -->
<svg version="1.1" id="ea45bedb-ed20-4117-bd89-661c4d560cb7"
	 xmlns="http://www.w3.org/2000/svg" xmlns:xlink="http://www.w3.org/1999/xlink" x="0px" y="0px" viewBox="0 0 990 630.6"
	 style="enable-background:new 0 0 990 630.6;" xml:space="preserve">
<style type="text/css">
	.st0{fill:#F2F2F2;}
	.st1{opacity:0.3;fill:#BC4040;enable-background:new    ;}
	.st2{fill:#BC4040;}
	.st3{fill:none;stroke:#3F3D56;stroke-width:2;stroke-miterlimit:10;}
	.st4{fill:#3F3D56;}
	.st5{fill:none;stroke:#BC4040;stroke-width:2;stroke-miterlimit:10;}
	.st6{fill:#575A89;}
	.st7{opacity:0.1;enable-background:new    ;}
	.st8{fill:#2F2E41;}
	.st9{fill:#A0616A;}
</style>
<title>photo album</title>
<rect x="119.1" y="0" class="st0" width="870.9" height="479.6"/>
<rect x="227.1" y="289.9" class="st1" width="174.2" height="148.8"/>
<circle class="st2" cx="958" cy="25.4" r="8.8"/>
<circle class="st2" cx="932.7" cy="25.4" r="8.8"/>
<circle class="st2" cx="907.3" cy="25.4" r="8.8"/>
<line class="st3" x1="145" y1="50.7" x2="964.1" y2="50.7"/>
<rect x="144.4" y="101.4" class="st4" width="819.1" height="137.8"/>
<rect x="352.8" y="161" class="st2" width="401.3" height="19.8"/>
<rect x="721" y="289.9" class="st4" width="174.2" height="148.8"/>
<rect x="467.4" y="289.9" class="st4" width="174.2" height="148.8"/>
<rect x="211.7" y="326.3" transform="matrix(0.9433 -0.3318 0.3318 0.9433 -116.0412 121.8327)" class="st4" width="174.2" height="148.8"/>
<line class="st5" x1="283.4" y1="365.2" x2="320.9" y2="471.7"/>
<circle class="st2" cx="283.4" cy="365.2" r="16"/>
<path class="st2" d="M338.4,373.7c-46,10.1-31.9,57.2-31.9,57.2"/>
<line class="st5" x1="809.2" y1="325.9" x2="809.2" y2="438.8"/>
<circle class="st2" cx="809.2" cy="325.9" r="16"/>
<path class="st2" d="M760.2,352.1c46.7-5.7,49,43.3,49,43.3"/>
<line class="st5" x1="554.1" y1="325.9" x2="554.1" y2="438.8"/>
<circle class="st2" cx="554.1" cy="325.9" r="16"/>
<path class="st2" d="M603.1,352.1c-46.7-5.7-49,43.3-49,43.3"/>
<path class="st2" d="M505,352.1c46.7-5.7,49,43.3,49,43.3"/>
<ellipse class="st4" cx="144.4" cy="611.9" rx="144.4" ry="18.7"/>
<path class="st6" d="M62,256.4L87.6,312l-6.3,17.8c0,0-33.3-35.2-43.9-54s20.7-97.4,20.7-97.4l5.8-2.9L62,256.4z"/>
<path class="st7" d="M62,256.4L87.6,312l-6.3,17.8c0,0-33.3-35.2-43.9-54s20.7-97.4,20.7-97.4l5.8-2.9L62,256.4z"/>
<path class="st6" d="M90,571.8c0,0,4.8,12.5,3.9,14.5s-7.2,3.9-12.5,3.9s-10.6,0-14.9-1.4s3.9-20.2,3.9-20.2L90,571.8z"/>
<path class="st6" d="M198,574.7l6.7,9.6c0,0,1.4,7.7,0,9.2s-8.2,4.8-12.5,6.3s-12.1-2.9-14.5-3.9s2.9-17.8,2.9-17.8L198,574.7z"/>
<path class="st8" d="M179.7,321.6c11.1,3.4,13.5,69.4,15.4,73.3s4.8,29.9,5.3,32.3s1.9,3.9,0.5,10.1s3.4,44.3,3.4,44.3
	s0.5,26-1,29.9s3.4,24.6,1.4,31.3s-0.5,9.2,1.4,11.1s0.5,5.8-1.9,11.6s-1.9,8.7-1.9,12.1s-24.6,6.3-24.1,3.9s-2.4-14.5-8.2-18.3
	s3.4-14.5,0-17.4s0-10.1-2.4-13s1.9-13.5,0-17.8s-33.7-100.7-33.7-100.7s-21.7,67.5-21.2,71.8s-13,59.8-13,59.8s2.4,14.5-5.3,18.3
	s0,10.6,0,10.6c-2.4,4.3-28.9-1-28-3.9s-1.9-6.3-4.8-10.6s2.9-5.8,5.8-10.6s0-7.7-1.4-13.5s1-8.7,3.9-15.9
	c2.9-7.2,3.4-21.7,0.5-31.8s11.6-57.4,11.6-57.4s-1.4-14,1-22.7s-1.9-50.6-3.9-56.4s-0.2-22.2-0.2-22.2l6.9-2.4
	C85.7,327.4,168.6,318.3,179.7,321.6z"/>
<path class="st8" d="M96.3,574.7c0,1.9,9.6,7.2,12.1,7.7s2.9,7.2,2.9,11.6s-13.5,8.2-13.5,8.2s-9.2,2.9-11.1,7.2s-13.5,2.9-20.2,2.4
	s-3.9-23.1-2.9-26s18.3,0,18.3,0S96.3,572.8,96.3,574.7z"/>
<path class="st8" d="M203.3,582.3c0.5-3.9,4.8-0.4,5.3,0.1s4.8,7.2,10.6,7.7s7.2,2.9,8.2,10.1s-13,14-13,14s-13,1-14,4.8
	s-18.8,1-25.5,1.4s-2.9-26,0-28.4s15.4,1.4,15.4,1.4C196.5,594.9,202.8,586.3,203.3,582.3z"/>
<circle class="st9" cx="150.8" cy="97" r="29.4"/>
<path class="st9" d="M159.4,116.8c-6.3,4.8-6.7,25.1-6.7,25.1s-43.9,0-36.6-2.9s9.2-35.2,9.2-35.2S165.7,111.9,159.4,116.8z"/>
<path class="st6" d="M66.9,165c-1.4,1.4-8.7,14.5-8.7,14.5s10.6,103.6,14.9,116.2s-1.4,16.9,5.3,20.7s0.5,9.2,0,15.4
	s97.9-4.3,104.1-5.8s-2.9-8.2-7.7-14.5s-4.8-66-4.8-66s22.7-72.3,20.2-81.9S154.1,138,154.1,138c-10.6-17.4-40.5-6.3-40.5-6.3
	S68.3,163.5,66.9,165z"/>
<path class="st9" d="M186.9,346.2c0,0-1,50.6,15.4,44.8s-2.4-48.2-2.4-48.2L186.9,346.2z"/>
<path class="st8" d="M131.2,113.6c-1.7,1.4-4.4,0.9-6.2,2.4c-0.8,0.7-3.4,3.6-3.2,4.8l-1.2-7.5c-0.4-3.2-1.1-6.3-2.2-9.3
	c-1.7-4.4-4.9-8.1-6.3-12.6c-2.6-7.9,0.6-17,6.6-22.7s14.4-8.5,22.7-9.1c5.5-0.4,11.1,0.1,16.1,2.5c2.9,1.4,5.4,3.4,8.3,4.7
	c3.7,1.6,7.9,2.2,10.9,4.8c1.2,1,2,2.5,2.2,4.1c0.1,2.3-1.8,4.4-4,5.3c-2.2,0.7-4.6,1-6.9,0.8c-0.3,1.6,0.3,3.4-0.5,4.9
	c-1.4,2.7-6,1.5-8.2,3.7c-2.1,1.9-1.3,5.8-3.6,7.5c-1.6,1.1-3.8,0.6-5.5-0.3s-3.4-2.1-5.3-2.2c-3.8-0.2-6.4,3.7-8.1,7.1
	C135.2,105.4,133.7,111.5,131.2,113.6z"/>
<path class="st7" d="M155.6,207.9c-3.4,14,2.4,41.5,2.4,48.2c0,6.7,3.4,22.7,5.8,27s4.8,26.5,4.8,26.5s3.9,21.7,9.2,25.1
	s2.4,10.6,2.4,15.9s15.9,1.9,20.2,0S198,338,198,335.1s1-3.9,3.4-8.7s-4.8-64.6-3.4-75.2c1.4-10.6-11.1-86.3-11.1-86.3l-7.7-4.8
	C159.9,156.3,158.9,193.9,155.6,207.9z"/>
<path class="st6" d="M158.9,206.4c-3.4,14,2.4,41.5,2.4,48.2c0,6.7,3.4,22.7,5.8,27s4.8,26.5,4.8,26.5s3.9,21.7,9.2,25.1
	s2.4,10.6,2.4,15.9s15.9,1.9,20.2,0s-2.4-12.5-2.4-15.4s1-3.9,3.4-8.7s-4.8-64.6-3.4-75.2c1.4-10.6-11.1-86.3-11.1-86.3l-7.7-4.8
	C163.3,154.8,162.3,192.4,158.9,206.4z"/>
</svg>
