<svg xmlns="http://www.w3.org/2000/svg" xmlns:xlink="http://www.w3.org/1999/xlink" viewBox="0 0 310.15 182.43"><defs><style>.cls-1{isolation:isolate;}.cls-2{fill:url(#linear-gradient);}.cls-11,.cls-15,.cls-3,.cls-6,.cls-8{opacity:0.7;mix-blend-mode:overlay;}.cls-3{fill:url(#linear-gradient-2);}.cls-13,.cls-4{opacity:0.83;}.cls-13,.cls-4,.cls-9{mix-blend-mode:multiply;}.cls-4{fill:url(#linear-gradient-3);}.cls-5{fill:url(#linear-gradient-4);}.cls-6{fill:url(#linear-gradient-5);}.cls-7{fill:url(#Gradiente_sem_nome_78);}.cls-8{fill:url(#linear-gradient-6);}.cls-9{fill:url(#Gradiente_sem_nome_27);}.cls-10{fill:url(#Gradiente_sem_nome_74);}.cls-11{fill:url(#linear-gradient-7);}.cls-12{fill:url(#Gradiente_sem_nome_30);}.cls-13{fill:url(#linear-gradient-8);}.cls-14{fill:url(#Gradiente_sem_nome_26);}.cls-15{fill:url(#linear-gradient-9);}</style><linearGradient id="linear-gradient" x1="216.11" y1="122.55" x2="327.39" y2="122.55" gradientTransform="translate(0 -0.01)" gradientUnits="userSpaceOnUse"><stop offset="0" stop-color="#00bef5"/><stop offset="1" stop-color="#007dc6"/></linearGradient><linearGradient id="linear-gradient-2" x1="216.11" y1="126.9" x2="327.39" y2="126.9" gradientTransform="translate(0 -0.01)" gradientUnits="userSpaceOnUse"><stop offset="0" stop-color="#fff"/><stop offset="1" stop-color="#fff" stop-opacity="0"/></linearGradient><linearGradient id="linear-gradient-3" x1="275.56" y1="101.07" x2="272.38" y2="123.61" gradientUnits="userSpaceOnUse"><stop offset="0" stop-color="#13355c"/><stop offset="1" stop-color="#fff" stop-opacity="0"/></linearGradient><linearGradient id="linear-gradient-4" x1="272.14" y1="62.43" x2="270.75" y2="107.68" gradientTransform="matrix(1, 0, 0, 1, 0, 0)" xlink:href="#linear-gradient"/><linearGradient id="linear-gradient-5" x1="261.94" y1="26.38" x2="272.13" y2="85.52" gradientTransform="matrix(1, 0, 0, 1, 0, 0)" xlink:href="#linear-gradient-2"/><linearGradient id="Gradiente_sem_nome_78" x1="128.52" y1="122.54" x2="17.24" y2="122.54" gradientUnits="userSpaceOnUse"><stop offset="0.01" stop-color="#e51f1f"/><stop offset="0.99" stop-color="#bc4040"/></linearGradient><linearGradient id="linear-gradient-6" x1="377.06" y1="126.9" x2="488.34" y2="126.9" gradientTransform="matrix(-1, 0, 0, 1, 505.58, -0.01)" xlink:href="#linear-gradient-2"/><linearGradient id="Gradiente_sem_nome_27" x1="436.51" y1="101.04" x2="433.34" y2="123.54" gradientTransform="matrix(-1, 0, 0, 1, 505.58, 0)" gradientUnits="userSpaceOnUse"><stop offset="0" stop-color="#5b0909"/><stop offset="1" stop-color="#fff" stop-opacity="0"/></linearGradient><linearGradient id="Gradiente_sem_nome_74" x1="71.91" y1="43.08" x2="73.97" y2="110.38" gradientUnits="userSpaceOnUse"><stop offset="0" stop-color="#e51f1f"/><stop offset="0.99" stop-color="#bc4040"/></linearGradient><linearGradient id="linear-gradient-7" x1="422.89" y1="26.38" x2="433.08" y2="85.52" gradientTransform="matrix(-1, 0, 0, 1, 505.58, 0)" xlink:href="#linear-gradient-2"/><linearGradient id="Gradiente_sem_nome_30" x1="199.11" y1="4.55" x2="151.74" y2="173.24" gradientUnits="userSpaceOnUse"><stop offset="0" stop-color="#c40000"/><stop offset="1" stop-color="#007dc6"/></linearGradient><linearGradient id="linear-gradient-8" x1="167.61" y1="98.72" x2="180.15" y2="102.08" xlink:href="#linear-gradient-3"/><linearGradient id="Gradiente_sem_nome_26" x1="191.24" y1="5.55" x2="138.6" y2="192.99" xlink:href="#Gradiente_sem_nome_30"/><linearGradient id="linear-gradient-9" x1="199.12" y1="4.55" x2="151.74" y2="173.24" gradientTransform="matrix(1, 0, 0, 1, 0, 0)" xlink:href="#linear-gradient-2"/></defs><title>logo-just-tag-without-background</title><g class="cls-1"><g id="OBJECTS"><path class="cls-2" d="M216.11,126.11V150a8.29,8.29,0,0,0,11.43,7.67l92.54-37.9a11.77,11.77,0,0,0,7.31-10.89V95.32a8.54,8.54,0,0,0-11.46-8l-97.49,35.49A3.54,3.54,0,0,0,216.11,126.11Z" transform="translate(-17.24 -8.76)"/><path class="cls-3" d="M216.11,136v14a8.29,8.29,0,0,0,11.43,7.67l92.54-37.9a11.77,11.77,0,0,0,7.31-10.89V95.48Z" transform="translate(-17.24 -8.76)"/><path class="cls-4" d="M220.91,123.6v23.13A8.07,8.07,0,0,0,232,154.2l86.62-35.47a11.77,11.77,0,0,0,7.32-10.9V94.42a6.35,6.35,0,0,0-8.52-6Z" transform="translate(-17.24 -8.76)"/><path class="cls-5" d="M327.39,100V93.68a15.73,15.73,0,0,0-9.77-14.56L227.54,42.23a8.29,8.29,0,0,0-11.43,7.67V73.8a3.54,3.54,0,0,0,2.33,3.33L311.58,111A11.77,11.77,0,0,0,327.39,100Z" transform="translate(-17.24 -8.76)"/><path class="cls-6" d="M327.39,93.68h0a15.73,15.73,0,0,0-9.77-14.56L227.54,42.23a8.29,8.29,0,0,0-11.43,7.67V74a3.54,3.54,0,0,0,2.1,3.24h0V61.27a8.28,8.28,0,0,1,11.43-7.67Z" transform="translate(-17.24 -8.76)"/><path class="cls-7" d="M28.7,87.29a8.54,8.54,0,0,0-11.46,8v13.57a11.76,11.76,0,0,0,7.32,10.89l92.54,37.9A8.28,8.28,0,0,0,128.52,150v-23.9a3.54,3.54,0,0,0-2.33-3.33Z" transform="translate(-17.24 -8.76)"/><path class="cls-8" d="M17.24,95.48v13.41a11.76,11.76,0,0,0,7.32,10.89l92.54,37.9A8.28,8.28,0,0,0,128.52,150V136Z" transform="translate(-17.24 -8.76)"/><path class="cls-9" d="M27.19,88.46a6.35,6.35,0,0,0-8.52,6v13.41A11.78,11.78,0,0,0,26,118.73l86.3,35.34a8.3,8.3,0,0,0,11.44-7.68V123.6Z" transform="translate(-17.24 -8.76)"/><path class="cls-10" d="M33.05,111l93.14-33.9a3.54,3.54,0,0,0,2.33-3.33V49.9a8.28,8.28,0,0,0-11.42-7.67L27,79.12a15.73,15.73,0,0,0-9.77,14.56V100A11.78,11.78,0,0,0,33.05,111Z" transform="translate(-17.24 -8.76)"/><path class="cls-11" d="M17.24,93.68h0A15.73,15.73,0,0,1,27,79.12L117.1,42.23a8.28,8.28,0,0,1,11.42,7.67V74a3.55,3.55,0,0,1-2.09,3.24h0V61.27A8.28,8.28,0,0,0,115,53.6Z" transform="translate(-17.24 -8.76)"/><path class="cls-12" d="M216.17,14.85l-55,162.53a20.32,20.32,0,0,1-19.25,13.81h-9a4.61,4.61,0,0,1-4.36-6.08l55-162.53A20.33,20.33,0,0,1,202.69,8.76h9.11A4.61,4.61,0,0,1,216.17,14.85Z" transform="translate(-17.24 -8.76)"/><path class="cls-13" d="M216.17,14.85l-55,162.53a20.32,20.32,0,0,1-19.25,13.81h-9a4.61,4.61,0,0,1-4.36-6.08l55-162.53A20.33,20.33,0,0,1,202.69,8.76h9.11A4.61,4.61,0,0,1,216.17,14.85Z" transform="translate(-17.24 -8.76)"/><path class="cls-14" d="M183.43,22.58l-55,162.53a4.61,4.61,0,0,0,4.36,6.08H141L202.69,8.76h0A20.33,20.33,0,0,0,183.43,22.58Z" transform="translate(-17.24 -8.76)"/><path class="cls-15" d="M207.47,14.85h8.7a4.61,4.61,0,0,0-4.37-6.09h-9.12a20.32,20.32,0,0,0-19.25,13.82l-55,162.53a4.61,4.61,0,0,0,4.37,6.08h.41l55-162.53A20.33,20.33,0,0,1,207.47,14.85Z" transform="translate(-17.24 -8.76)"/></g></g></svg>