<?xml version="1.0" encoding="UTF-8"?>
<svg xmlns="http://www.w3.org/2000/svg" xmlns:xlink="http://www.w3.org/1999/xlink" viewBox="0 0 408.02 273.72">
   <defs>
      <style>.cls-1{isolation:isolate;}.cls-2{fill:url(#linear-gradient);}.cls-11,.cls-15,.cls-3,.cls-6,.cls-8{opacity:0.7;mix-blend-mode:overlay;}.cls-3{fill:url(#linear-gradient-2);}.cls-13,.cls-4{opacity:0.83;}.cls-13,.cls-4,.cls-9{mix-blend-mode:multiply;}.cls-4{fill:url(#linear-gradient-3);}.cls-5{fill:url(#linear-gradient-4);}.cls-6{fill:url(#linear-gradient-5);}.cls-7{fill:url(#Gradiente_sem_nome_78);}.cls-8{fill:url(#linear-gradient-6);}.cls-9{fill:url(#Gradiente_sem_nome_27);}.cls-10{fill:url(#Gradiente_sem_nome_74);}.cls-11{fill:url(#linear-gradient-7);}.cls-12{fill:url(#Gradiente_sem_nome_30);}.cls-13{fill:url(#linear-gradient-8);}.cls-14{fill:url(#Gradiente_sem_nome_26);}.cls-15{fill:url(#linear-gradient-9);}.cls-16{font-size:47.7px;font-family:Roboto-Black, Roboto;font-weight:800;letter-spacing:0.1em;}.cls-16,.cls-19{fill:#fff;}.cls-17{letter-spacing:0.11em;}.cls-18{letter-spacing:0.1em;}.cls-19{ src: url(../../font/Raleway-Regular.ttf); font-size:18px;font-family:Raleway-Regular, Raleway;letter-spacing:0.3em;}.cls-20{letter-spacing:0.29em;}.cls-21{letter-spacing:0.28em;}.cls-22{letter-spacing:0.3em;}.cls-23{letter-spacing:0.28em;}.cls-24{letter-spacing:0.3em;}.cls-25{letter-spacing:0.29em;}.cls-26{letter-spacing:0.29em;}.cls-27{letter-spacing:0.29em;}.cls-28{letter-spacing:0.3em;}.cls-29{letter-spacing:0.28em;}</style>
      <linearGradient id="linear-gradient" x1="248.2" y1="113.79" x2="359.47" y2="113.79" gradientTransform="translate(0 -0.01)" gradientUnits="userSpaceOnUse">
         <stop offset="0" stop-color="#00bef5" />
         <stop offset="1" stop-color="#007dc6" />
      </linearGradient>
      <linearGradient id="linear-gradient-2" x1="248.2" y1="118.14" x2="359.47" y2="118.14" gradientTransform="translate(0 -0.01)" gradientUnits="userSpaceOnUse">
         <stop offset="0" stop-color="#fff" />
         <stop offset="1" stop-color="#fff" stop-opacity="0" />
      </linearGradient>
      <linearGradient id="linear-gradient-3" x1="307.64" y1="92.31" x2="304.47" y2="114.85" gradientUnits="userSpaceOnUse">
         <stop offset="0" stop-color="#13355c" />
         <stop offset="1" stop-color="#fff" stop-opacity="0" />
      </linearGradient>
      <linearGradient id="linear-gradient-4" x1="304.22" y1="53.67" x2="302.83" y2="98.92" gradientTransform="matrix(1, 0, 0, 1, 0, 0)" xlink:href="#linear-gradient" />
      <linearGradient id="linear-gradient-5" x1="294.02" y1="17.62" x2="304.22" y2="76.76" gradientTransform="matrix(1, 0, 0, 1, 0, 0)" xlink:href="#linear-gradient-2" />
      <linearGradient id="Gradiente_sem_nome_78" x1="160.6" y1="113.78" x2="49.33" y2="113.78" gradientUnits="userSpaceOnUse">
         <stop offset="0.01" stop-color="#e51f1f" />
         <stop offset="0.99" stop-color="#bc4040" />
      </linearGradient>
      <linearGradient id="linear-gradient-6" x1="409.14" y1="118.14" x2="520.42" y2="118.14" gradientTransform="matrix(-1, 0, 0, 1, 569.75, -0.01)" xlink:href="#linear-gradient-2" />
      <linearGradient id="Gradiente_sem_nome_27" x1="468.6" y1="92.28" x2="465.43" y2="114.78" gradientTransform="matrix(-1, 0, 0, 1, 569.75, 0)" gradientUnits="userSpaceOnUse">
         <stop offset="0" stop-color="#5b0909" />
         <stop offset="1" stop-color="#fff" stop-opacity="0" />
      </linearGradient>
      <linearGradient id="Gradiente_sem_nome_74" x1="103.99" y1="34.32" x2="106.05" y2="101.62" gradientUnits="userSpaceOnUse">
         <stop offset="0" stop-color="#e51f1f" />
         <stop offset="0.99" stop-color="#bc4040" />
      </linearGradient>
      <linearGradient id="linear-gradient-7" x1="454.97" y1="17.62" x2="465.17" y2="76.76" gradientTransform="matrix(-1, 0, 0, 1, 569.75, 0)" xlink:href="#linear-gradient-2" />
      <linearGradient id="Gradiente_sem_nome_30" x1="231.2" y1="-4.21" x2="183.82" y2="164.48" gradientUnits="userSpaceOnUse">
         <stop offset="0" stop-color="#c40000" />
         <stop offset="1" stop-color="#007dc6" />
      </linearGradient>
      <linearGradient id="linear-gradient-8" x1="199.69" y1="89.95" x2="212.23" y2="93.31" xlink:href="#linear-gradient-3" />
      <linearGradient id="Gradiente_sem_nome_26" x1="223.32" y1="-3.21" x2="170.68" y2="184.23" xlink:href="#Gradiente_sem_nome_30" />
      <linearGradient id="linear-gradient-9" x1="231.2" y1="-4.21" x2="183.83" y2="164.48" gradientTransform="matrix(1, 0, 0, 1, 0, 0)" xlink:href="#linear-gradient-2" />
   </defs>
   <title>logo-without-background-letters-white</title>
   <g class="cls-1">
      <g id="OBJECTS">
         <path class="cls-2" d="M248.2,117.35v23.9a8.28,8.28,0,0,0,11.42,7.67L352.16,111a11.78,11.78,0,0,0,7.31-10.9V86.55a8.54,8.54,0,0,0-11.46-8L250.53,114A3.54,3.54,0,0,0,248.2,117.35Z" transform="translate(-1.14)" />
         <path class="cls-3" d="M248.2,127.23v14a8.28,8.28,0,0,0,11.42,7.67L352.16,111a11.78,11.78,0,0,0,7.31-10.9V86.72Z" transform="translate(-1.14)" />
         <path class="cls-4" d="M253,114.84V138a8.07,8.07,0,0,0,11.13,7.47L350.73,110a11.78,11.78,0,0,0,7.32-10.9V85.66a6.34,6.34,0,0,0-8.52-6Z" transform="translate(-1.14)" />
         <path class="cls-5" d="M359.47,91.2V84.91a15.73,15.73,0,0,0-9.77-14.55L259.62,33.47a8.27,8.27,0,0,0-11.42,7.66V65a3.53,3.53,0,0,0,2.33,3.32l93.14,33.91A11.77,11.77,0,0,0,359.47,91.2Z" transform="translate(-1.14)" />
         <path class="cls-6" d="M359.47,84.91h0a15.73,15.73,0,0,0-9.77-14.55L259.62,33.47a8.27,8.27,0,0,0-11.42,7.66V65.22a3.54,3.54,0,0,0,2.09,3.23h0v-16a8.28,8.28,0,0,1,11.43-7.66Z" transform="translate(-1.14)" />
         <path class="cls-7" d="M60.79,78.53a8.54,8.54,0,0,0-11.46,8v13.57A11.78,11.78,0,0,0,56.64,111l92.54,37.9a8.28,8.28,0,0,0,11.42-7.67v-23.9a3.54,3.54,0,0,0-2.33-3.33Z" transform="translate(-1.14)" />
         <path class="cls-8" d="M49.33,86.72v13.4A11.78,11.78,0,0,0,56.64,111l92.54,37.9a8.28,8.28,0,0,0,11.42-7.67v-14Z" transform="translate(-1.14)" />
         <path class="cls-9" d="M59.27,79.7a6.34,6.34,0,0,0-8.52,6V99.07A11.78,11.78,0,0,0,58.07,110l86.29,35.34a8.31,8.31,0,0,0,11.45-7.68V114.84Z" transform="translate(-1.14)" />
         <path class="cls-10" d="M65.13,102.27l93.14-33.91A3.53,3.53,0,0,0,160.6,65V41.13a8.27,8.27,0,0,0-11.42-7.66L59.1,70.36a15.73,15.73,0,0,0-9.77,14.55V91.2A11.77,11.77,0,0,0,65.13,102.27Z" transform="translate(-1.14)" />
         <path class="cls-11" d="M49.33,84.91h0A15.73,15.73,0,0,1,59.1,70.36l90.08-36.89a8.27,8.27,0,0,1,11.42,7.66V65.22a3.54,3.54,0,0,1-2.09,3.23h0v-16a8.28,8.28,0,0,0-11.43-7.66Z" transform="translate(-1.14)" />
         <path class="cls-12" d="M248.25,6.09l-55,162.53A20.33,20.33,0,0,1,174,182.43h-9.05a4.61,4.61,0,0,1-4.36-6.09l55-162.52A20.34,20.34,0,0,1,234.77,0h9.11A4.61,4.61,0,0,1,248.25,6.09Z" transform="translate(-1.14)" />
         <path class="cls-13" d="M248.25,6.09l-55,162.53A20.33,20.33,0,0,1,174,182.43h-9.05a4.61,4.61,0,0,1-4.36-6.09l55-162.52A20.34,20.34,0,0,1,234.77,0h9.11A4.61,4.61,0,0,1,248.25,6.09Z" transform="translate(-1.14)" />
         <path class="cls-14" d="M215.51,13.82l-55,162.52a4.61,4.61,0,0,0,4.36,6.09h8.16L234.77,0h0A20.34,20.34,0,0,0,215.51,13.82Z" transform="translate(-1.14)" />
         <path class="cls-15" d="M239.55,6.09h8.7A4.61,4.61,0,0,0,243.89,0h-9.12a20.33,20.33,0,0,0-19.26,13.82l-55,162.52a4.61,4.61,0,0,0,4.37,6.09h.42l55-162.53A20.31,20.31,0,0,1,239.55,6.09Z" transform="translate(-1.14)" />
         <text class="cls-16" transform="translate(1.09 243.3)">
            CAIO DE SOUZA
         </text>
         <text class="cls-19" transform="translate(0 269.71)">
            Desenvolvimento de Softwares
         </text>
      </g>
   </g>
</svg>