<svg xmlns="http://www.w3.org/2000/svg" xmlns:xlink="http://www.w3.org/1999/xlink" viewBox="0 0 404.34 272.6"><defs><style>.cls-1{isolation:isolate;}.cls-2{fill:url(#linear-gradient);}.cls-11,.cls-15,.cls-3,.cls-6,.cls-8{opacity:0.7;mix-blend-mode:overlay;}.cls-3{fill:url(#linear-gradient-2);}.cls-13,.cls-4{opacity:0.83;}.cls-13,.cls-4,.cls-9{mix-blend-mode:multiply;}.cls-4{fill:url(#linear-gradient-3);}.cls-5{fill:url(#linear-gradient-4);}.cls-6{fill:url(#linear-gradient-5);}.cls-7{fill:url(#Gradiente_sem_nome_78);}.cls-8{fill:url(#linear-gradient-6);}.cls-9{fill:url(#Gradiente_sem_nome_27);}.cls-10{fill:url(#Gradiente_sem_nome_74);}.cls-11{fill:url(#linear-gradient-7);}.cls-12{fill:url(#Gradiente_sem_nome_30);}.cls-13{fill:url(#linear-gradient-8);}.cls-14{fill:url(#Gradiente_sem_nome_26);}.cls-15{fill:url(#linear-gradient-9);}.cls-16{font-size:47.7px;font-family:Roboto-Black, Roboto;font-weight:800;letter-spacing:0.1em;}.cls-16,.cls-19{fill:#141414;}.cls-17{letter-spacing:0.11em;}.cls-18{letter-spacing:0.1em;}.cls-19{font-size:12.98px;font-family:Raleway-Regular, Raleway;letter-spacing:0.3em;}.cls-20{letter-spacing:0.29em;}.cls-21{letter-spacing:0.28em;}.cls-22{letter-spacing:0.3em;}.cls-23{letter-spacing:0.28em;}.cls-24{letter-spacing:0.3em;}.cls-25{letter-spacing:0.29em;}.cls-26{letter-spacing:0.3em;}.cls-27{letter-spacing:0.29em;}.cls-28{letter-spacing:0.29em;}.cls-29{letter-spacing:0.3em;}.cls-30{letter-spacing:0.28em;}</style><linearGradient id="linear-gradient" x1="293.8" y1="220.73" x2="405.07" y2="220.73" gradientTransform="translate(0 -0.01)" gradientUnits="userSpaceOnUse"><stop offset="0" stop-color="#00bef5"/><stop offset="1" stop-color="#007dc6"/></linearGradient><linearGradient id="linear-gradient-2" x1="293.8" y1="225.08" x2="405.07" y2="225.08" gradientTransform="translate(0 -0.01)" gradientUnits="userSpaceOnUse"><stop offset="0" stop-color="#fff"/><stop offset="1" stop-color="#fff" stop-opacity="0"/></linearGradient><linearGradient id="linear-gradient-3" x1="353.24" y1="199.25" x2="350.07" y2="221.79" gradientUnits="userSpaceOnUse"><stop offset="0" stop-color="#13355c"/><stop offset="1" stop-color="#fff" stop-opacity="0"/></linearGradient><linearGradient id="linear-gradient-4" x1="349.82" y1="160.61" x2="348.43" y2="205.86" gradientTransform="matrix(1, 0, 0, 1, 0, 0)" xlink:href="#linear-gradient"/><linearGradient id="linear-gradient-5" x1="339.62" y1="124.56" x2="349.82" y2="183.7" gradientTransform="matrix(1, 0, 0, 1, 0, 0)" xlink:href="#linear-gradient-2"/><linearGradient id="Gradiente_sem_nome_78" x1="206.2" y1="220.72" x2="94.93" y2="220.72" gradientUnits="userSpaceOnUse"><stop offset="0.01" stop-color="#e51f1f"/><stop offset="0.99" stop-color="#bc4040"/></linearGradient><linearGradient id="linear-gradient-6" x1="454.74" y1="225.08" x2="566.02" y2="225.08" gradientTransform="matrix(-1, 0, 0, 1, 660.95, -0.01)" xlink:href="#linear-gradient-2"/><linearGradient id="Gradiente_sem_nome_27" x1="514.2" y1="199.21" x2="511.03" y2="221.72" gradientTransform="matrix(-1, 0, 0, 1, 660.95, 0)" gradientUnits="userSpaceOnUse"><stop offset="0" stop-color="#5b0909"/><stop offset="1" stop-color="#fff" stop-opacity="0"/></linearGradient><linearGradient id="Gradiente_sem_nome_74" x1="149.59" y1="141.26" x2="151.65" y2="208.56" gradientUnits="userSpaceOnUse"><stop offset="0" stop-color="#e51f1f"/><stop offset="0.99" stop-color="#bc4040"/></linearGradient><linearGradient id="linear-gradient-7" x1="500.57" y1="124.56" x2="510.77" y2="183.7" gradientTransform="matrix(-1, 0, 0, 1, 660.95, 0)" xlink:href="#linear-gradient-2"/><linearGradient id="Gradiente_sem_nome_30" x1="276.8" y1="102.73" x2="229.42" y2="271.42" gradientUnits="userSpaceOnUse"><stop offset="0" stop-color="#c40000"/><stop offset="1" stop-color="#007dc6"/></linearGradient><linearGradient id="linear-gradient-8" x1="245.29" y1="196.89" x2="257.83" y2="200.25" xlink:href="#linear-gradient-3"/><linearGradient id="Gradiente_sem_nome_26" x1="268.92" y1="103.73" x2="216.28" y2="291.17" xlink:href="#Gradiente_sem_nome_30"/><linearGradient id="linear-gradient-9" x1="276.8" y1="102.73" x2="229.43" y2="271.42" gradientTransform="matrix(1, 0, 0, 1, 0, 0)" xlink:href="#linear-gradient-2"/></defs><title>logo-without-backgriund-letters-black</title><g class="cls-1"><g id="OBJECTS"><path class="cls-2" d="M293.8,224.29v23.9a8.28,8.28,0,0,0,11.42,7.67L397.76,218a11.78,11.78,0,0,0,7.31-10.9V193.49a8.54,8.54,0,0,0-11.46-8L296.13,221A3.54,3.54,0,0,0,293.8,224.29Z" transform="translate(-47.83 -106.94)"/><path class="cls-3" d="M293.8,234.17v14a8.28,8.28,0,0,0,11.42,7.67L397.76,218a11.78,11.78,0,0,0,7.31-10.9v-13.4Z" transform="translate(-47.83 -106.94)"/><path class="cls-4" d="M298.59,221.78v23.13a8.07,8.07,0,0,0,11.13,7.47l86.61-35.47a11.78,11.78,0,0,0,7.32-10.9V192.6a6.34,6.34,0,0,0-8.52-6Z" transform="translate(-47.83 -106.94)"/><path class="cls-5" d="M405.07,198.14v-6.29a15.73,15.73,0,0,0-9.77-14.55l-90.08-36.89a8.27,8.27,0,0,0-11.42,7.66V172a3.53,3.53,0,0,0,2.33,3.32l93.14,33.91A11.77,11.77,0,0,0,405.07,198.14Z" transform="translate(-47.83 -106.94)"/><path class="cls-6" d="M405.07,191.85h0a15.73,15.73,0,0,0-9.77-14.55l-90.08-36.89a8.27,8.27,0,0,0-11.42,7.66v24.09a3.54,3.54,0,0,0,2.09,3.23h0V159.44a8.28,8.28,0,0,1,11.43-7.66Z" transform="translate(-47.83 -106.94)"/><path class="cls-7" d="M106.39,185.47a8.54,8.54,0,0,0-11.46,8v13.57a11.78,11.78,0,0,0,7.31,10.9l92.54,37.9a8.28,8.28,0,0,0,11.42-7.67v-23.9a3.54,3.54,0,0,0-2.33-3.33Z" transform="translate(-47.83 -106.94)"/><path class="cls-8" d="M94.93,193.66v13.4a11.78,11.78,0,0,0,7.31,10.9l92.54,37.9a8.28,8.28,0,0,0,11.42-7.67v-14Z" transform="translate(-47.83 -106.94)"/><path class="cls-9" d="M104.87,186.64a6.34,6.34,0,0,0-8.52,6V206a11.78,11.78,0,0,0,7.32,10.9L190,252.25a8.31,8.31,0,0,0,11.45-7.68V221.78Z" transform="translate(-47.83 -106.94)"/><path class="cls-10" d="M110.73,209.21l93.14-33.91A3.53,3.53,0,0,0,206.2,172V148.07a8.27,8.27,0,0,0-11.42-7.66L104.7,177.3a15.73,15.73,0,0,0-9.77,14.55v6.29A11.77,11.77,0,0,0,110.73,209.21Z" transform="translate(-47.83 -106.94)"/><path class="cls-11" d="M94.93,191.85h0a15.73,15.73,0,0,1,9.77-14.55l90.08-36.89a8.27,8.27,0,0,1,11.42,7.66v24.09a3.54,3.54,0,0,1-2.09,3.23h0V159.44a8.28,8.28,0,0,0-11.43-7.66Z" transform="translate(-47.83 -106.94)"/><path class="cls-12" d="M293.85,113l-55,162.53a20.33,20.33,0,0,1-19.25,13.81h-9.05a4.61,4.61,0,0,1-4.36-6.09l55-162.52a20.34,20.34,0,0,1,19.26-13.82h9.11A4.61,4.61,0,0,1,293.85,113Z" transform="translate(-47.83 -106.94)"/><path class="cls-13" d="M293.85,113l-55,162.53a20.33,20.33,0,0,1-19.25,13.81h-9.05a4.61,4.61,0,0,1-4.36-6.09l55-162.52a20.34,20.34,0,0,1,19.26-13.82h9.11A4.61,4.61,0,0,1,293.85,113Z" transform="translate(-47.83 -106.94)"/><path class="cls-14" d="M261.11,120.76l-55,162.52a4.61,4.61,0,0,0,4.36,6.09h8.16l61.7-182.43h0A20.34,20.34,0,0,0,261.11,120.76Z" transform="translate(-47.83 -106.94)"/><path class="cls-15" d="M285.15,113h8.7a4.61,4.61,0,0,0-4.36-6.09h-9.12a20.33,20.33,0,0,0-19.26,13.82l-55,162.52a4.61,4.61,0,0,0,4.37,6.09h.42l55-162.53A20.31,20.31,0,0,1,285.15,113Z" transform="translate(-47.83 -106.94)"/><text class="cls-16" transform="translate(0 243.3)">CAIO DE SOU<tspan class="cls-17" x="337.72" y="0">Z</tspan><tspan class="cls-18" x="369.13" y="0">A</tspan></text><text class="cls-19" transform="translate(55.07 269.71)">Dese<tspan class="cls-20" x="46.36" y="0">n</tspan><tspan class="cls-21" x="57.68" y="0">v</tspan><tspan class="cls-22" x="68.26" y="0">o</tspan><tspan class="cls-23" x="79.87" y="0">l</tspan><tspan x="87.07" y="0">vime</tspan><tspan class="cls-24" x="131.94" y="0">n</tspan><tspan class="cls-25" x="143.34" y="0">t</tspan><tspan class="cls-26" x="151.46" y="0">o de s</tspan><tspan class="cls-27" x="211.13" y="0">o</tspan><tspan class="cls-22" x="222.63" y="0">ft</tspan><tspan class="cls-28" x="239.04" y="0">w</tspan><tspan class="cls-29" x="253.32" y="0">a</tspan><tspan class="cls-30" x="264.29" y="0">r</tspan><tspan class="cls-29" x="272.53" y="0">es</tspan></text></g></g></svg>