<?xml version="1.0" encoding="utf-8"?>
<!-- Generator: Adobe Illustrator 23.0.1, SVG Export Plug-In . SVG Version: 6.00 Build 0)  -->
<svg version="1.1" id="Camada_1" xmlns="http://www.w3.org/2000/svg" xmlns:xlink="http://www.w3.org/1999/xlink" x="0px" y="0px"
	 viewBox="0 0 1041.3 554.2" style="enable-background:new 0 0 1041.3 554.2;" xml:space="preserve">
<title>programming</title>
<g>
	<defs>
		<path id="SVGID_1_" d="M854.7,444.9c-0.9,2.5-1.9,5-2.8,7.5c-1.5,3.8-2.9,7.6-4.4,11.3c-0.6,1.6-1.3,3.2-1.9,4.8
			c-7,17.8-13.6,33.6-19.2,46.6c-10.3,24-30.3,39-52.2,39.3l-124.1,1.7h-1.3l-10.6,0.1l-9.1,0.1l-27.9,0.4H600l-14.2,0.2h-0.4
			l-87.5,1.2l-78.1,1l-9.1,0.1l-56.5,0.8h-0.1l-36.6,0.5h-0.4l-115.8,1.6l-34.6,0.5c-7.4,0.1-14.7-1.2-21.8-3.9
			c-12.3-4.6-23.4-13.3-32-25.1c-14.9-20.3-25.7-44.1-33-69.8c-1.1-3.7-2-7.5-2.9-11.3c-25.2-105.8,5.5-242.2,60.8-333.5
			c2.3-3.8,4.7-7.5,7.1-11.2l0.1-0.1c17-25.9,36.1-47.6,56.4-63c36-27.3,75.9-35,115.1-12.1c33.2,19.4,64.2,28.5,94.2,31
			c3,0.2,6.1,0.4,9.1,0.5c68.9,2.7,133.5-28.1,209.3-48c3-0.8,6-1.6,9.1-2.3C692.3,0.5,752.3-6.5,823.7,8.3
			c7.4,1.5,14.7,3.7,21.9,6.5c3.1,1.3,6.2,2.6,9.1,4.1c34.1,17.2,52.6,49,60.5,88.8c0.7,3.7,1.4,7.5,1.9,11.3
			C931.1,214.7,890.1,350.6,854.7,444.9z"/>
	</defs>
	<clipPath id="SVGID_2_">
		<use xlink:href="#SVGID_1_"  style="overflow:visible;"/>
	</clipPath>
	<g transform="matrix(1 0 0 1 -3.814697e-06 0)" style="clip-path:url(#SVGID_2_);">
		
			<image style="overflow:visible;" width="2000" height="1335" xlink:href="../../../../../Pictures/white-buffalo-tork-and-roll-curitiba-49732-3510937-blured.jpg"  transform="matrix(0.4457 0 0 0.4464 59.0944 0)">
		</image>
	</g>
</g>
</svg>
