<?xml version="1.0" encoding="utf-8"?>
<!-- Generator: Adobe Illustrator 23.0.1, SVG Export Plug-In . SVG Version: 6.00 Build 0)  -->
<svg version="1.1" id="fe80fb2b-bcaf-407e-919b-306adc32f78b"
	 xmlns="http://www.w3.org/2000/svg" xmlns:xlink="http://www.w3.org/1999/xlink" x="0px" y="0px" viewBox="0 0 1032 741.8"
	 style="enable-background:new 0 0 1032 741.8;" xml:space="preserve">
<style type="text/css">
	.st0{fill:none;stroke:#3F3D56;stroke-miterlimit:10;}
	.st1{fill:#F2F2F2;}
	.st2{opacity:0.3;fill:#BC4040;enable-background:new    ;}
	.st3{fill:#BC4040;}
	.st4{fill:#2F2E41;}
	.st5{fill:#A0616A;}
	.st6{opacity:0.1;enable-background:new    ;}
	.st7{fill:#3F3D56;}
</style>
<title>profile</title>
<line class="st0" x1="0" y1="741.3" x2="166" y2="741.3"/>
<path class="st1" d="M262.4,127.8h698.2c10.7,0,19.4,8.7,19.4,19.4v460.2c0,10.7-8.7,19.4-19.4,19.4H262.4
	c-10.7,0-19.4-8.7-19.4-19.4V147.2C243,136.4,251.7,127.8,262.4,127.8z"/>
<path class="st0" d="M239.9,96.3h698.2c10.7,0,19.4,8.7,19.4,19.4v460.2c0,10.7-8.7,19.4-19.4,19.4H239.9
	c-10.7,0-19.4-8.7-19.4-19.4V115.7C220.5,104.9,229.2,96.3,239.9,96.3z"/>
<line class="st0" x1="220.5" y1="144.1" x2="957.5" y2="144.1"/>
<path class="st2" d="M517,263.4v16.8c0,3.9-3.2,7.1-7.1,7.1H323.1c-3.9,0-7.1-3.2-7.1-7.1v-16.8c0-3.9,3.2-7.1,7.1-7.1h186.8
	C513.8,256.3,517,259.4,517,263.4z"/>
<path class="st2" d="M555.5,349.4v10.8c0,3.9-3.2,7.1-7.1,7.1H284.6c-3.9,0-7.1-3.2-7.1-7.1v-10.8c0-3.9,3.2-7.1,7.1-7.1h263.8
	C552.3,342.3,555.5,345.4,555.5,349.4z"/>
<path class="st2" d="M555.5,417.4v10.8c0,3.9-3.2,7.1-7.1,7.1H284.6c-3.9,0-7.1-3.2-7.1-7.1v-10.8c0-3.9,3.2-7.1,7.1-7.1h263.8
	C552.3,410.3,555.5,413.4,555.5,417.4z"/>
<path class="st2" d="M555.5,485.4v10.8c0,3.9-3.2,7.1-7.1,7.1H284.6c-3.9,0-7.1-3.2-7.1-7.1v-10.8c0-3.9,3.2-7.1,7.1-7.1h263.8
	C552.3,478.3,555.5,481.4,555.5,485.4z"/>
<path class="st0" d="M507,253.4v16.8c0,3.9-3.2,7.1-7.1,7.1H313.1c-3.9,0-7.1-3.2-7.1-7.1v-16.8c0-3.9,3.2-7.1,7.1-7.1h186.8
	C503.8,246.3,507,249.4,507,253.4z"/>
<path class="st0" d="M545.5,339.4v10.8c0,3.9-3.2,7.1-7.1,7.1H274.6c-3.9,0-7.1-3.2-7.1-7.1v-10.8c0-3.9,3.2-7.1,7.1-7.1h263.8
	C542.3,332.3,545.5,335.4,545.5,339.4z"/>
<path class="st0" d="M545.5,407.4v10.8c0,3.9-3.2,7.1-7.1,7.1H274.6c-3.9,0-7.1-3.2-7.1-7.1v-10.8c0-3.9,3.2-7.1,7.1-7.1h263.8
	C542.3,400.3,545.5,403.4,545.5,407.4z"/>
<path class="st0" d="M545.5,475.4v10.8c0,3.9-3.2,7.1-7.1,7.1H274.6c-3.9,0-7.1-3.2-7.1-7.1v-10.8c0-3.9,3.2-7.1,7.1-7.1h263.8
	C542.3,468.3,545.5,471.4,545.5,475.4z"/>
<circle class="st2" cx="276.5" cy="126.3" r="15"/>
<circle class="st2" cx="318.5" cy="126.3" r="15"/>
<circle class="st2" cx="360.5" cy="126.3" r="15"/>
<circle class="st0" cx="282.5" cy="120.3" r="15"/>
<circle class="st0" cx="324.5" cy="120.3" r="15"/>
<circle class="st0" cx="366.5" cy="120.3" r="15"/>
<path class="st3" d="M761.9,574.2c-1.3-15.1,1-40,1-40s-7.1-13.1-7.7-33.1c-0.6-19.6-5.4-26-5.6-26.2l0,0c-10,5.2-22.7,61-22.7,61
	c0.9,11,0.2,26.8-2.3,38.4L761.9,574.2z"/>
<path class="st3" d="M632.3,219.3c-13.2,0-23.8,10.6-23.6,23.7v307.3c0,13.2,10.7,23.8,23.8,23.8H702c0.8-17.2,2-37.3,2.9-38.6
	c1.7-2.3,0-15.4,0-15.4l2.7-21.2c0,0-0.5-36.1,3.5-42.3c3.5-5.4,4.2-14.9,4.4-17.4c0-0.4,0-0.6,0-0.6l0,0c-1.1-0.5-1.4-1.3,0-2.4
	c5-4.1,6.5-38.2,6.6-42.1v-0.4c-0.4,0-3.8,0.9-12.7-1.1c-9.3-2.1-10.4-23.1-5.8-32.3c2.9-5.8,3.2-10.2,3.1-12.7
	c-0.2-2.9,0.1-5.7,0.7-8.5c4-16.7,15.2-15.3,15.2-15.3l18.5-7.6c1.9-1.9,2.9-4.4,2.8-7.1c0-0.2,0-0.4,0-0.6
	c-2.3-0.8-4.4-1.9-6.3-3.3c-9.4-7-11.2-20.4-4.1-29.7l0.1-0.1c0,0-0.1-0.1-0.1-0.2c-0.1-0.7-0.1-1.4-0.3-2.1
	c-0.5-1.6-2.2-2.5-3.4-3.7c-1.2-1.3-1.8-3-1.8-4.7c-0.1-1.7,0.3-3.5,1.2-5c1.4-2.4,4-4.5,6.7-4c1.6,0.3,3.1,1.5,4.8,1.6
	c1.6,0.1,3.1-0.8,4.6-1.5c3.6-1.6,7.7-2,11.5-1c1.2,0.2,2.3,0.8,3.2,1.6c0.6,0.8,1.2,1.6,1.7,2.4c1.9,2.5,5.4,2.9,8.5,3.5
	c3.1,0.6,6.6,1.8,7.6,4.8c0.2,0.7,0.3,1.3,0.3,2c-0.1,1.5-0.3,3-0.7,4.4v0.1v-0.1c-0.1,0.4-0.1,0.8,0.1,1.1c0.5,0.8,1.7,0.5,2.6,0.7
	c1.8,0.3,2.2,2.6,2.3,4.4c0.1,2.1,0.2,4.1,0.2,6.2c0,0.3,0,0.5,0,0.7c0,0.6-0.1,1.2-0.2,1.8c-0.4,1.1-1,2.1-1.8,2.9
	c-2.3,2.8-4.6,5.5-6.9,8.3c-2.7,3.2-5.5,6.9-5.7,11c0,0.3,0,0.6,0,0.9c0.7,1.6,1.9,3.1,3.3,4.2c0.1,0.1,0.2,0.1,0.3,0.2
	c0.3,0.2,5.4,2.2,18,9.6c13.1,7.7,9.4,25.1,9.4,25.1v11.3c0,0-3.6,35.8-14.8,39.8c-1.1,0.4-2.2,0.7-3.4,0.9c0.4,3.2,0.8,6.3,1.1,8.7
	c1.3,10.2,4.8,26.2,4.8,26.2s-0.3,0.1-0.7,0.2c0,0.2,0.1,0.4,0.1,0.6c1.2,9.4-0.2,24.8-0.2,24.8s-1.7,11.4-4.2,23.1
	c-1.5,7-1.5,14.2,0,21.2c-0.8,8.2,0,16.5,2.3,24.4c0.2,0.6,0.3,1.1,0.5,1.7l0,0l0,0c3.4,12.2,0,29.7-2.7,40.9h80.9l0,0
	c13.2,0,23.8-10.7,23.8-23.8V243.1l0,0c0-13.2-10.7-23.8-23.8-23.8H632.3L632.3,219.3z"/>
<path class="st0" d="M910.5,216v307.6c0,13.2-10.7,23.8-23.8,23.8H656.2c-13.2,0-23.8-10.7-23.8-23.8V216.1
	c0-13.2,10.7-23.8,23.8-23.8h230.5C899.9,192.3,910.5,202.9,910.5,216z"/>
<path class="st4" d="M100.9,321.8c0,0-9.3-2.8-11.3,0.2s2.7,24.7,2.7,24.7l20.5,1.2l-7.2-18.1L100.9,321.8z"/>
<path class="st5" d="M29,500.2c0,0,18.7,41.1,4.3,39.8s-20-39.8-20-39.8H29z"/>
<path class="st5" d="M151.1,495.9c0,0-8.2,44.3,5.5,39.6s9.8-43.4,9.8-43.4L151.1,495.9z"/>
<path class="st5" d="M96.9,311.3c0,0-0.3,20.6,7.7,21.7c8,1-4.5,12-4.5,12l-14.2,2.8l-20.4-1.5l-9-11.6c0,0,15.9-7.5,9-30.9
	L96.9,311.3z"/>
<path class="st6" d="M96.9,311.3c0,0-0.3,20.6,7.7,21.7c8,1-4.5,12-4.5,12l-14.2,2.8l-20.4-1.5l-9-11.6c0,0,15.9-7.5,9-30.9
	L96.9,311.3z"/>
<path class="st4" d="M133.5,485.8c0,0,10.1,21.7,2.1,89.8c0,0,2.3,24.1,0.4,28.6c-2,4.5-17.8,65.7-17.8,65.7s-20.4,4.5-23.2-9
	c0,0,2.8-19.3,2.6-22.3s4.5-35.9,4.5-35.9l-9.7-63.6l-7.3,57.4c0,0,0,16.6-2.4,20.2s0,77.1,0,77.1s6.7,11.2-3.4,11.4
	s-19.2-0.2-20-7.3s-1.2-14.2-3.4-18.5s-4.9-53.6-4.3-70.7S37.4,503.2,42.1,494C46.8,484.7,133.5,485.8,133.5,485.8z"/>
<circle class="st5" cx="85.9" cy="293.3" r="25.8"/>
<path class="st1" d="M60.2,335c0,0,15.7,11.6,38.5,2.4c0,0,7.5-3.6,6.9-9.2s15.7,44.9,15.7,44.9l16.5,87.9l-0.9,35.9
	c0,0-7.3-3.7-30.1,4.5c-22.8,8.2-60-9.2-60-9.2l1.3-92.2l1.3-53.7l3.4-11.8C52.8,334.5,54.5,331.3,60.2,335z"/>
<path class="st4" d="M97.8,320.7c0,0,3.7-0.6,7.4,5.2c3.6,5.8,12.2,9.5,12.2,9.5s20.9,1.3,23.9,12.5s10.5,26.5,14.2,54.6
	c3.6,28.1,10.9,73,12,76.7s-1.5,14.9,1.5,18.3s-21.3,3.4-21.3,3.4s-2.2-17.6-3.7-17.6s-1.1,11.8,0.4,20.4c1.5,8.6-11,0-11,0
	s-9.7-39.3-18.9-74.8s-14.6-55-12.9-63s6.4-30.8,3-32.9C101.1,330.9,97.8,320.7,97.8,320.7z"/>
<path class="st4" d="M66.7,320.8c0,0-5.6,3.1-19.8,13.2S23,351.8,23,351.8s-5.6,4.3-9,29.9c-3.5,25.5-11.2,91.7-8.2,100.1
	c3,8.4,4.1,13.4,3,18.3c-1.1,5,22.6,4.8,23,3.7s-0.7-20.7,0.4-21.1s6.9,11.6,8,21.7c1,10,13.5,18,16.3,18c2.8,0,17.2-58.2,17.4-98
	c0.2-39.8-4.7-73.3-8.4-78C61.8,341.6,66.7,320.8,66.7,320.8z"/>
<path class="st7" d="M104.4,671.9c0,0,1.7-4.7,7.7-3.2s10.1-3.9,10.1-3.9s3.3-0.4,1.1,3.7s-3.9,6.9-3.9,6.9s12.8,29.4,4.5,36.5
	s-18,2.8-18,2.8s-9.4-6.7-9-24.3c0,0-0.4-5.6-5.6-14.6c-5.2-9.1-9-22.8-2.8-25.4c6.2-2.6,7.8-2.7,7.8-2.7s-2.9,13.3,4.6,18
	L104.4,671.9z"/>
<path class="st7" d="M64.5,705.1c0,0-5.2-9.6,3.4-10.7c8.6-1.1,17.8-1.7,17.4,2.8s-1.5,11.4-1.5,11.4l1.5,4.9c0,0,0.4,12.3,1.9,13.8
	s9.7,14.4-7.7,14.4c-17.4,0-22.6-1.9-21.1-6s1.9-24.3,1.9-24.3L64.5,705.1z"/>
<path class="st4" d="M77.7,272.8c0,0,12.1,3.2,18.3,4.5s5.6-2.4,5.6-2.4s8.1,1.1,7.7,0.2c-0.5-0.8,3.4-5.4-1.1-10.5s-3.2-9-3.2-9
	h-3.9l-1.1-1.5h-6c0,0-4.5-1.7-16.3,0s-27.9,2.1-29.2,9.2s-8,16-5.6,20s15.9,20.8,17.2,27.9s7.3,8.7,7.1,4.2s-6.3-20-1.1-20.6
	C71.3,294.1,80.1,281,77.7,272.8z"/>
<path class="st0" d="M934.9,7.5c-8.7,0.5-16.4,5.9-19.8,13.9c-5,12,1.5,26.1,11,34.8s21.8,13.7,33,20.3c15,8.8,28.5,21,36,36.7
	s8.3,35.1-0.5,50.1c-8.2,13.9-23.1,22.2-37.3,29.9"/>
<ellipse class="st3" cx="947.5" cy="8.5" rx="17.5" ry="8.5"/>
<ellipse class="st3" cx="961.5" cy="64.5" rx="17.5" ry="8.5"/>
<ellipse class="st3" cx="929.5" cy="73.5" rx="17.5" ry="8.5"/>
<ellipse class="st3" cx="979.5" cy="120.5" rx="17.5" ry="8.5"/>
<ellipse class="st3" cx="1014.5" cy="120.5" rx="17.5" ry="8.5"/>
</svg>
