<?xml version="1.0" encoding="utf-8"?>
<!-- Generator: Adobe Illustrator 23.0.1, SVG Export Plug-In . SVG Version: 6.00 Build 0)  -->
<svg version="1.1" id="ae72d77f-f397-4021-826a-c0dbbd2dad22"
	 xmlns="http://www.w3.org/2000/svg" xmlns:xlink="http://www.w3.org/1999/xlink" x="0px" y="0px" viewBox="0 0 807.3 509.5"
	 style="enable-background:new 0 0 807.3 509.5;" xml:space="preserve">
<style type="text/css">
	.st0{fill:#3F3D56;}
	.st1{fill:#FFFFFF;}
	.st2{fill:#FFB8B8;}
	.st3{fill:#2F2E41;}
	.st4{fill:#1C7CB4;}
</style>
<path class="st0" d="M468,496.9c-6,4.3-12.5,7.9-19.4,10.6c-1.8,0.7-3.6,1.4-5.5,2h-93.9c-0.4-0.7-0.8-1.3-1.1-2
	c-7.6-13.6-14.5-27.8-16.5-43.2c-2.4-18.5,4.2-39.5,20.5-48.5c2.1-1.2,4.4-2.1,6.7-2.8c1-0.3,2-0.5,3-0.8c19-4.2,37.8,7.8,42,26.7
	c1.4,6.3,1,12.9-1.1,19c13.8-14.2,11.2-37.1,6.5-56.3c-4.8-19.2-10.5-40.5-0.8-57.8c5.4-9.6,14.9-15.5,25.5-17.9
	c0.3-0.1,0.7-0.1,1-0.2c12.7-2.6,25.9-0.3,36.9,6.5c20.4,12.8,30.8,37.2,34.2,61C511.5,431.5,499.4,474.3,468,496.9z"/>
<path class="st1" d="M369.2,424.4c7.5,15.3,9.9,32.6,6.8,49.3c-2.3,12.3-7.4,23.8-15,33.8c-0.5,0.7-1,1.3-1.6,2h-3.7
	c0.6-0.7,1.1-1.3,1.7-2c13.8-17.2,19.6-39.5,15.9-61.3c-2.2-12.1-7.1-23.5-14.5-33.3c1-0.3,2-0.5,3-0.8
	C364.6,416,367.1,420.1,369.2,424.4z"/>
<path class="st1" d="M459,435.5c-0.8,8.5-2.8,16.8-6,24.6c-2.9,7-6.9,13.4-11.8,19.2c-9.9,12-23.1,20.9-37.3,26.9
	c-1,0.4-2.1,0.9-3.1,1.3c-1.8,0.7-3.7,1.4-5.6,2H385c2.4-0.6,4.8-1.3,7.1-2c5.6-1.7,11-3.9,16.3-6.4c13.4-6.4,25-15.9,33.9-27.8
	c9.5-13.1,13.7-28.8,14.4-44.9c0.8-17.1-1.5-34.6-5.4-51.2c-4-17.1-10.1-33.6-18.1-49.2c-0.4-0.7-0.1-1.6,0.6-2
	c0.3-0.2,0.6-0.3,1-0.2c0.3,0.1,0.6,0.3,0.8,0.6c1,1.9,2,3.9,2.9,5.8c7.8,16.3,13.5,33.4,17,51.1C459,400.3,460.8,418.1,459,435.5z"
	/>
<path class="st1" d="M71.2,225.6c-23.2,0-42-18.8-42-42s18.8-42,42-42s42,18.8,42,42C113.1,206.8,94.3,225.5,71.2,225.6z
	 M71.2,143.6c-22.1,0-40,17.9-40,40s17.9,40,40,40s40-17.9,40-40C111.1,161.5,93.2,143.6,71.2,143.6z"/>
<path class="st1" d="M342.3,86.7c-23.2,0-42-18.8-42-42s18.8-42,42-42s42,18.8,42,42C384.3,67.8,365.5,86.6,342.3,86.7z M342.3,4.7
	c-22.1,0-40,17.9-40,40s17.9,40,40,40s40-17.9,40-40S364.4,4.7,342.3,4.7z"/>
<path class="st1" d="M523.2,109.5c-23.2,0-42-18.8-42-42s18.8-42,42-42s42,18.8,42,42S546.4,109.5,523.2,109.5z M523.2,27.5
	c-22.1,0-40,17.9-40,40s17.9,40,40,40c22.1,0,40-17.9,40-40C563.2,45.5,545.3,27.6,523.2,27.5z"/>
<path class="st1" d="M765.3,193.5c-23.2,0-42-18.8-42-42s18.8-42,42-42s42,18.8,42,42S788.5,193.5,765.3,193.5z M765.3,111.5
	c-22.1,0-40,17.9-40,40s17.9,40,40,40s40-17.9,40-40S787.4,111.6,765.3,111.5z"/>
<polygon class="st2" points="554.6,482.2 565.7,487.6 591.7,447.7 575.5,439.7 "/>
<path class="st3" d="M553.6,477.2l21.7,10.6l0,0c7.6,3.7,10.8,13,7,20.6l0,0l-0.2,0.4l-35.5-17.4L553.6,477.2z"/>
<polygon class="st2" points="663.7,501 676,501 681.8,453.7 663.7,453.7 "/>
<path class="st3" d="M660.6,493h24.1l0,0c8.5,0,15.4,6.9,15.4,15.4l0,0v0.5h-39.5V493z"/>
<circle class="st2" cx="637.4" cy="150.1" r="24.6"/>
<path class="st3" d="M661.9,485.4c-2.4,0-4.4-1.9-4.5-4.3l-9.5-126.4c0-0.8-0.7-1.5-1.5-1.4c-0.5,0-1,0.3-1.3,0.8L584.3,470
	c-1.1,2.2-3.8,3-6,1.9l-16.9-8.5c-2.2-1.1-3.1-3.8-2-6l36.2-73.4l24-55c9.3-18.2,19.1-27.7,30.1-28.8c11.3-1.1,23.3,6.6,36.8,23.7
	l0.1,0.1v0.2l-2,154.4c0,2.3-1.8,4.3-4.1,4.5l-18.2,2.3C662.2,485.4,662,485.4,661.9,485.4z"/>
<path class="st2" d="M611.5,337.9c5-3.1,6.6-9.7,3.5-14.8c-0.3-0.5-0.7-1-1.1-1.5l3.7-97.9l-18,2.2l-1.5,95.2
	c-4.2,4.3-4.1,11.1,0.2,15.3C601.8,340,607.2,340.6,611.5,337.9L611.5,337.9z"/>
<path class="st4" d="M622.9,241l-24.2-2.7c-2.6-0.3-4.5-2.7-4.2-5.3c0-0.2,0.1-0.5,0.1-0.7l6.2-23.4c0.9-7.3,7.5-12.6,14.9-11.7
	c7.3,0.9,12.5,7.5,11.7,14.8l0.8,24.2c0.1,2.7-2,4.9-4.7,5C623.3,241.1,623.1,241.1,622.9,241L622.9,241z"/>
<path class="st2" d="M727,179.4c-0.1,0.5-0.2,1.1-0.2,1.6l-43,24.8l-10.4-6l-11.1,14.6l17.5,12.4c2.9,2.1,6.8,2,9.6-0.2l44.3-34.9
	c5.4,2,11.5-0.8,13.5-6.2S746.4,174,741,172s-11.5,0.8-13.5,6.2C727.2,178.6,727.1,179,727,179.4L727,179.4z"/>
<path class="st4" d="M682.4,207l-13.9,18c-1.5,2-4.3,2.3-6.3,0.8c-0.2-0.1-0.3-0.3-0.5-0.4L646,209.1c-5.4-4.2-6.4-12.1-2.2-17.5
	s12.1-6.4,17.5-2.2l19.7,11c2.2,1.2,2.9,4,1.7,6.1C682.6,206.7,682.5,206.9,682.4,207L682.4,207z"/>
<path class="st4" d="M693.7,331.6L667,201.8c-2.6-12.8-14.9-21.3-27.9-19.1l-8.9,1.5c-6.2,1-11.8,4.5-15.5,9.7l0,0
	c-5.9,8.2-7.7,18.6-5,28.3l14.7,52.7l-10.9,56.4c-0.4,2.2,1,4.3,3.2,4.7c0.4,0.1,0.9,0.1,1.3,0c5.5-0.8,14.5-1.9,24.8-2.5l5.6-21.6
	l2.3,21.3c12.7-0.4,26.5,0.3,37.9,3.2c2.1,0.6,4.3-0.7,4.9-2.8C693.8,332.8,693.8,332.2,693.7,331.6z"/>
<path class="st3" d="M646.9,144.6c6.3,4.3,14.6,8.8,21,4.2c4.2-3,5.6-8.6,3.9-13.5c-3.1-8.8-11.6-12.7-19.7-15.7
	c-10.5-3.9-22-7-32.9-4.2s-20.5,13.3-18.5,24.4c1.6,8.9,10,16.3,8.8,25.2c-1.2,9-11.3,13.8-20.3,15.4s-19,2.1-25.4,8.6
	c-8.2,8.2-6.2,22.9,1.6,31.5s19.4,12.6,30.7,15.2c15,3.5,31.1,5.4,45.3-0.5s25.3-21.7,21.1-36.5c-1.7-6.3-5.8-11.5-9.8-16.7
	s-8-10.5-9.5-16.8c-1.3-5.3-0.3-11.4,3.2-15.3C647.7,148.5,647.9,146.4,646.9,144.6L646.9,144.6z"/>
<path class="st1" d="M353.8,23.9c5.8,0,10.5,4.7,10.6,10.6v21.1c0,5.8-4.7,10.5-10.6,10.6h-21.1c-5.8,0-10.5-4.7-10.6-10.6V34.4
	c0-5.8,4.7-10.5,10.6-10.6L353.8,23.9 M353.8,19.7h-21.1c-8.2,0-14.8,6.6-14.8,14.8v21.1c0,8.2,6.6,14.8,14.8,14.8h21.1
	c8.2,0,14.8-6.6,14.8-14.8V34.4C368.5,26.3,361.9,19.7,353.8,19.7z"/>
<path class="st1" d="M356.9,34.4c-1.7,0-3.2-1.4-3.2-3.2c0-1.7,1.4-3.2,3.2-3.2s3.2,1.4,3.2,3.2C360.1,33,358.7,34.4,356.9,34.4
	L356.9,34.4z"/>
<path class="st1" d="M343.2,36.5c4.7,0,8.4,3.8,8.4,8.4s-3.8,8.4-8.4,8.4s-8.4-3.8-8.4-8.4C334.7,40.3,338.5,36.5,343.2,36.5
	L343.2,36.5 M343.2,32.3c-7,0-12.7,5.7-12.7,12.7s5.7,12.7,12.7,12.7S355.9,52,355.9,45l0,0C355.9,38,350.2,32.3,343.2,32.3
	L343.2,32.3z"/>
<polygon class="st2" points="191.9,496.3 179.9,493.5 185.1,446.1 202.7,450.3 "/>
<path class="st3" d="M192.2,508.6l-38.5-9.1l0.1-0.5c1.9-8.3,10.2-13.4,18.5-11.4l0,0l0,0l23.5,5.5L192.2,508.6z"/>
<polygon class="st2" points="238.4,496.7 226.1,496.7 220.3,449.4 238.4,449.4 "/>
<path class="st3" d="M241.5,508.6H202v-0.5c0-8.5,6.9-15.4,15.4-15.4l0,0l0,0h24.1V508.6z"/>
<path class="st2" d="M304.6,309.7c3.1-5.1,1.5-11.7-3.5-14.8c-0.5-0.3-1.1-0.6-1.7-0.8l-35.9-91l-20,12.1l41.6,85.7
	c-1.8,5.7,1.3,11.8,7,13.6C296.8,315.9,302,314,304.6,309.7L304.6,309.7z"/>
<path class="st4" d="M271.1,218.1l-22.8,8.4c-2.5,0.9-5.3-0.4-6.2-2.8c-0.1-0.2-0.1-0.4-0.2-0.7l-5-23.7c-2.5-6.9,1.1-14.6,8-17.1
	s14.6,1,17.1,7.9l11.6,21.2c1.3,2.3,0.4,5.3-1.9,6.5C271.5,217.9,271.3,218,271.1,218.1L271.1,218.1z"/>
<path class="st3" d="M237.5,479.7c-0.1,0-0.1,0-0.2,0L220,479c-2.4-0.1-4.4-2.1-4.3-4.6l1.3-96c0-0.8-0.6-1.5-1.5-1.5
	c-0.8,0-1.4,0.6-1.5,1.3l-10.1,96.1c-0.2,2-1.7,3.6-3.7,4h-0.1l-16.3-1.3c-2.5,0.4-4.8-1.3-5.1-3.8c0-0.2-0.1-0.5-0.1-0.7l1-162.8
	l80.1,5.1L242,475.7C241.8,478,239.8,479.7,237.5,479.7z"/>
<circle class="st2" cx="222.9" cy="143.2" r="24.6"/>
<path class="st4" d="M255.7,322.1c-0.1,0-0.2,0-0.3,0l-74-5.4c-2.4-0.2-4.2-2.2-4.2-4.6l2-92.9c-0.5-23.1,17.8-42.3,40.9-42.9
	c23.1-0.5,42.3,17.8,42.9,40.9c0,1.6,0,3.1-0.2,4.7c-1.3,14.3-2.3,76.9-2.6,95.7C260.1,320.1,258.1,322.1,255.7,322.1z"/>
<path class="st2" d="M123.8,170.8c0.1,0.5,0.2,1.1,0.2,1.6l43,24.8l10.4-6l11.1,14.6L171,218.2c-2.9,2.1-6.8,2-9.6-0.2l-44.1-35
	c-5.4,2-11.5-0.8-13.5-6.2s0.8-11.5,6.2-13.5c5.4-2,11.5,0.8,13.5,6.2C123.6,169.9,123.7,170.3,123.8,170.8L123.8,170.8z"/>
<path class="st4" d="M167.6,194.7c0.3-1.3,1.1-2.4,2.2-3l19.7-11c5.5-4.2,13.3-3.2,17.5,2.3c4.2,5.4,3.2,13.2-2.2,17.5l-15.7,16.3
	c-1.7,1.8-4.6,1.8-6.4,0.1c-0.2-0.2-0.3-0.3-0.4-0.5l-13.9-18C167.7,197.3,167.4,196,167.6,194.7z"/>
<path class="st3" d="M235.6,162.6c-7.7-0.1-14.8-4.1-18.8-10.6c-0.2-0.3-1.4-2.1-2.8-4.1c-3.8-5.6-4.7-7-4.8-7.2
	c-1-2.7-4.3-3.7-6.9-4.1c-0.5-0.1-1-0.1-1.5-0.2c-3.6-0.5-7.4-1-9.5-5c-1.5-2.9-4-14.9-2.1-17.8c2.4-3.7,7-2.5,11.4-1.3
	c2.8,0.7,5.8,1.5,8.1,1c10.1-2.1,21.6-4.5,31.7,1.7c8.1,4.9,12.9,14.2,12.7,24.2c-0.3,10.8-5,19.3-12.6,22.7l-1.6,0.5l-0.9,0.1
	C237.3,162.6,236.4,162.6,235.6,162.6z"/>
<path class="st1" d="M785.3,128.3l-37.1-0.1c-2-0.1-3.7,1.4-3.8,3.4l0,0l-0.1,37.1c0,2.1,1.7,3.7,3.8,3.8l37.1,0.1
	c2-0.1,3.6-1.8,3.6-3.8l0.1-37.1c0-1.9-1.5-3.4-3.3-3.5C785.4,128.3,785.3,128.3,785.3,128.3z M758.1,165.3h-6.4v-19.8h6.4V165.3z
	 M755.2,142.5L755.2,142.5c-2,0-3.5-1.6-3.5-3.5s1.6-3.4,3.5-3.4s3.4,1.6,3.4,3.5C758.6,141,757.1,142.5,755.2,142.5z M781.4,165.4
	H775v-10.8c0-2.6-0.9-4.4-3.2-4.4c-1.5,0-2.8,0.9-3.3,2.3c-0.2,0.5-0.2,1-0.2,1.6v11.3h-6.4v-19.8h6.4v2.8c1.2-2,3.4-3.3,5.7-3.2
	c4.2,0,7.3,2.8,7.3,8.7L781.4,165.4z"/>
<path class="st0" d="M806.8,508.5c0,0.6-0.4,1-1,1h-806c-0.6,0-1-0.4-1-1s0.4-1,1-1h806C806.4,507.5,806.8,508,806.8,508.5z"/>
<g>
	<path class="st1" d="M71.2,157.2c-14.9,0-27,12.1-27,27c0,11.9,7.8,22.1,18.5,25.7c1.4,0.2,1.8-0.6,1.8-1.4c0-0.6,0-2.3,0-4.6
		c-7.5,1.6-9.1-3.6-9.1-3.6c-1.2-3.1-3-4-3-4c-2.5-1.7,0.2-1.6,0.2-1.6c2.7,0.2,4.1,2.8,4.1,2.8c2.4,4.1,6.3,2.9,7.9,2.2
		c0.2-1.8,0.9-2.9,1.7-3.6c-6-0.7-12.3-3-12.3-13.3c0-3,1-5.4,2.8-7.3c-0.3-0.7-1.2-3.5,0.3-7.1c0,0,2.3-0.7,7.4,2.8
		c2.1-0.6,4.5-0.9,6.8-0.9s4.6,0.3,6.8,0.9c5.2-3.5,7.4-2.8,7.4-2.8c1.5,3.6,0.5,6.5,0.3,7.1c1.8,1.9,2.8,4.3,2.8,7.3
		c0,10.3-6.3,12.6-12.4,13.3c1,0.8,1.9,2.5,1.9,5c0,3.6,0,6.5,0,7.4c0,0.7,0.4,1.6,1.8,1.4c10.7-3.6,18.5-13.7,18.5-25.7
		C98.2,169.3,86.1,157.2,71.2,157.2z"/>
</g>
<g>
	<path class="st1" d="M543.3,64l-21.7,6.6L506.2,54l1.2-4.6L522.9,66l21.7-6.6 M545.8,54.8l-37.1-9.9c-2.6-0.7-5.2,0.8-5.9,3.4
		L495.3,76c-0.7,2.6,0.8,5.2,3.4,5.9l37.1,9.9c2.6,0.7,5.2-0.8,5.9-3.4l7.5-27.8C549.9,58.1,548.3,55.4,545.8,54.8z"/>
</g>
</svg>
